# xmcd
#
# Track frame offsets:
#	150
#	29201
#	46080
#	80006
#	94358
#	131752
#	144757
#	182988
#	203578
#
# Disc length: 3560 seconds
#
# Revision: 1
# Processed by: cddbd v1.5.2PL0 Copyright (c) Steve Scherf et al.
# Submitted via: audiograbber 1.83.01
#
DISCID=7e0de609
DTITLE=Benedek Elek - Mese3
DYEAR=1900
DGENRE=
TTITLE0=A két bors ökröcske
TTITLE1=Az aranyeke
TTITLE2=A vitéz szabólegény
TTITLE3=A kóró és a kismadár
TTITLE4=Szóló szõlõ,mosolygó alma,csengõ barack
TTITLE5=Kampó
TTITLE6=A talléros kalap
TTITLE7=A szegény ember és az ördög
TTITLE8=A béka királykisasszony
EXTD=
EXTT0=
EXTT1=
EXTT2=
EXTT3=
EXTT4=
EXTT5=
EXTT6=
EXTT7=
EXTT8=
PLAYORDER=
